<?xml version="1.0" standalone="no"?>
<!DOCTYPE svg PUBLIC "-//W3C//DTD SVG 20010904//EN"
 "http://www.w3.org/TR/2001/REC-SVG-20010904/DTD/svg10.dtd">
<svg version="1.0" xmlns="http://www.w3.org/2000/svg"
 width="700.000000pt" height="700.000000pt" viewBox="0 0 700.000000 700.000000"
 preserveAspectRatio="xMidYMid meet">
<metadata>
Created by potrace 1.14, written by Peter Selinger 2001-2017
</metadata>
<g transform="translate(0.000000,700.000000) scale(0.100000,-0.100000)"
fill="#000000" stroke="none">
<path d="M4527 6954 c-1 -1 -58 -4 -127 -8 -69 -4 -141 -8 -160 -10 -19 -3
-64 -7 -100 -11 -138 -13 -170 -17 -340 -41 -293 -42 -569 -100 -770 -161
-943 -285 -1768 -713 -2320 -1203 -72 -64 -237 -231 -292 -297 -45 -53 -112
-143 -106 -143 2 0 35 9 73 19 39 11 129 35 200 54 239 64 318 85 605 162 257
69 447 120 658 176 39 10 107 28 150 40 408 109 497 133 562 150 41 11 142 38
224 60 83 23 182 49 220 59 39 10 141 37 226 60 85 23 207 55 270 71 63 17
187 50 275 74 88 24 230 62 315 85 85 23 256 68 380 102 124 33 235 62 247 64
12 2 34 9 48 14 l25 10 0 335 c0 261 -3 335 -12 336 -19 2 -249 4 -251 3z"/>
<path d="M6385 6474 c-76 -21 -1040 -280 -1155 -310 -30 -8 -78 -22 -106 -30
-28 -8 -60 -16 -70 -19 -11 -2 -59 -15 -109 -28 -49 -13 -187 -50 -305 -82
-118 -31 -235 -63 -260 -70 -25 -7 -148 -41 -275 -75 -265 -70 -610 -162 -840
-225 -88 -24 -223 -60 -300 -80 -77 -20 -160 -43 -185 -50 -25 -7 -108 -30
-185 -50 -77 -20 -169 -45 -205 -55 -36 -10 -78 -21 -95 -26 -16 -4 -32 -8
-35 -9 -3 -1 -18 -5 -35 -10 -83 -21 -439 -117 -500 -134 -84 -23 -419 -113
-1133 -305 l-534 -143 550 -549 c303 -302 563 -561 579 -577 39 -36 130 -52
433 -73 193 -14 762 -7 857 10 10 2 54 7 98 10 44 4 91 9 105 11 14 2 48 6 75
10 28 3 64 7 80 10 17 3 44 7 60 10 17 3 50 7 75 10 37 5 246 42 340 61 171
34 545 127 667 165 219 68 507 166 568 194 17 7 62 26 100 41 96 37 121 47
188 78 32 14 59 26 62 26 36 0 742 362 885 455 19 12 77 49 129 81 52 32 99
62 104 65 7 5 58 172 72 239 5 22 181 681 210 787 14 51 28 101 30 110 2 10
14 54 26 98 12 44 36 136 55 205 18 69 40 151 49 184 9 32 15 59 13 60 -2 1
-39 -8 -83 -20z"/>
<path d="M6928 5242 c-13 -15 -53 -53 -89 -86 -35 -32 -80 -73 -99 -90 -45
-42 -278 -227 -364 -289 -91 -66 -359 -241 -491 -319 -503 -301 -1125 -581
-1680 -758 -131 -42 -329 -100 -359 -106 -10 -2 -42 -10 -70 -18 -28 -8 -62
-17 -76 -20 -47 -9 -72 -15 -90 -21 -10 -3 -28 -8 -39 -10 -12 -3 -29 -7 -38
-9 -52 -12 -332 -69 -358 -73 -16 -2 -55 -8 -85 -14 -118 -21 -351 -53 -475
-65 -38 -4 -83 -8 -100 -10 -207 -20 -766 -27 -955 -11 -443 37 -821 129
-1100 268 -52 26 -96 47 -97 45 -2 -1 75 -196 170 -432 95 -236 188 -467 207
-514 137 -350 523 -582 1175 -705 17 -3 64 -10 105 -16 41 -5 86 -12 100 -14
14 -2 68 -7 120 -10 52 -4 111 -9 130 -11 44 -4 490 -4 550 0 25 2 86 7 135
10 50 4 106 8 125 11 32 4 73 8 193 20 37 4 257 37 322 49 48 9 142 26 165 31
132 25 400 91 590 145 311 89 792 252 945 320 22 10 79 34 127 54 223 92 559
269 748 394 85 56 220 152 230 162 3 3 17 15 32 26 139 107 425 393 429 429 5
45 3 1658 -2 1661 -3 2 -17 -9 -31 -24z"/>
<path d="M85 4373 c9 -69 51 -169 100 -238 109 -153 267 -267 510 -367 l70
-29 -340 341 c-187 187 -341 340 -343 340 -2 0 -1 -21 3 -47z"/>
<path d="M5350 2281 c-35 -21 -481 -173 -680 -233 -77 -23 -338 -98 -360 -103
-8 -2 -64 -15 -125 -29 -145 -35 -321 -71 -437 -91 -51 -9 -104 -18 -118 -21
-14 -2 -44 -7 -66 -10 -23 -2 -52 -7 -64 -9 -12 -2 -49 -7 -83 -10 -34 -3 -69
-8 -77 -10 -8 -2 -52 -7 -98 -10 -46 -4 -91 -8 -100 -10 -9 -2 -26 -4 -37 -4
-14 -1 233 -254 830 -851 765 -765 851 -847 858 -827 7 18 99 352 112 407 8
33 61 230 137 510 44 162 81 302 83 310 2 8 35 134 75 280 39 146 73 272 75
280 5 23 53 204 80 300 35 128 37 140 23 140 -7 0 -20 -5 -28 -9z"/>
</g>
</svg>
