<?xml version="1.0" encoding="UTF-8" standalone="no"?>
<!DOCTYPE svg PUBLIC "-//W3C//DTD SVG 20010904//EN"
              "http://www.w3.org/TR/2001/REC-SVG-20010904/DTD/svg10.dtd">

<svg xmlns="http://www.w3.org/2000/svg"
     viewBox="-20 -60 600 600">
  <path id="Auswahl"
        fill="none" stroke="white" stroke-width="10"
        d="M 22.00,138.00
           C 22.00,138.00 116.00,112.85 116.00,112.85
             116.00,112.85 217.00,85.85 217.00,85.85
             217.00,85.85 268.00,72.13 268.00,72.13
             268.00,72.13 325.00,56.88 325.00,56.88
             325.00,56.88 342.01,51.28 342.01,51.28
             342.01,51.28 343.00,44.00 343.00,44.00
             343.00,44.00 343.00,3.00 343.00,3.00
             343.00,3.00 319.00,3.00 319.00,3.00
             304.36,3.02 280.84,6.27 266.00,8.58
             266.00,8.58 232.00,14.88 232.00,14.88
             186.65,25.64 126.75,50.96 88.00,76.67
             69.30,89.07 50.95,102.29 35.83,119.00
             30.76,124.61 24.03,130.53 22.00,138.00 Z
           M 462.00,35.00
           C 462.00,35.00 426.00,44.88 426.00,44.88
             426.00,44.88 374.00,58.88 374.00,58.88
             374.00,58.88 214.00,101.88 214.00,101.88
             214.00,101.88 78.00,138.42 78.00,138.42
             78.00,138.42 37.00,149.42 37.00,149.42
             37.00,149.42 4.00,158.00 4.00,158.00
             6.65,163.60 11.67,167.67 16.00,172.00
             16.00,172.00 39.00,195.00 39.00,195.00
             39.00,195.00 71.00,227.00 71.00,227.00
             74.60,230.60 82.91,239.67 87.00,241.57
             90.61,243.24 99.73,243.76 104.00,244.28
             104.00,244.28 153.00,246.00 153.00,246.00
             153.00,246.00 165.00,245.09 165.00,245.09
             165.00,245.09 198.00,242.15 198.00,242.15
             252.71,235.61 305.84,219.93 356.00,197.30
             374.50,188.96 392.46,179.61 410.00,169.42
             413.68,167.29 428.10,158.99 430.10,156.39
             431.93,154.01 435.33,138.94 436.42,135.00
             436.42,135.00 450.63,82.00 450.63,82.00
             450.63,82.00 459.00,51.00 459.00,51.00
             460.25,46.64 462.86,39.32 462.00,35.00 Z
           M 25.00,238.00
           C 25.00,238.00 45.00,289.00 45.00,289.00
             50.34,302.35 54.46,316.55 65.09,326.83
             88.09,349.09 128.97,357.82 160.00,360.09
             160.00,360.09 172.00,361.00 172.00,361.00
             172.00,361.00 206.00,361.00 206.00,361.00
             206.00,361.00 218.00,360.09 218.00,360.09
             218.00,360.09 246.00,357.28 246.00,357.28
             283.76,352.36 328.33,340.77 364.00,327.42
             402.10,313.17 439.43,297.02 471.00,270.72
             477.95,264.93 484.73,258.80 490.72,252.00
             492.67,249.78 496.44,245.64 497.40,243.00
             498.12,241.04 498.00,238.11 498.00,236.00
             498.00,236.00 498.00,123.00 498.00,123.00
             492.31,125.69 489.58,129.69 485.00,133.83
             485.00,133.83 466.00,149.58 466.00,149.58
             445.91,165.23 423.41,179.57 401.00,191.69
             346.26,221.30 287.24,242.38 226.00,253.42
             226.00,253.42 175.00,260.09 175.00,260.09
             175.00,260.09 165.00,261.00 165.00,261.00
             165.00,261.00 144.00,261.96 144.00,261.96
             144.00,261.96 130.00,261.96 130.00,261.96
             130.00,261.96 120.00,261.00 120.00,261.00
             100.62,260.78 73.45,256.23 55.00,250.26
             55.00,250.26 25.00,238.00 25.00,238.00 Z
           M 5.00,183.00
           C 5.97,203.88 20.65,217.14 38.00,226.36
             43.38,229.22 48.94,232.05 55.00,233.00
             55.00,233.00 31.00,208.00 31.00,208.00
             31.00,208.00 5.00,183.00 5.00,183.00 Z
           M 220.00,375.00
           C 223.28,381.93 241.56,398.56 248.00,405.00
             248.00,405.00 308.00,465.00 308.00,465.00
             308.00,465.00 329.00,486.00 329.00,486.00
             333.33,490.33 337.40,495.35 343.00,498.00
             343.00,498.00 357.12,444.00 357.12,444.00
             357.12,444.00 378.85,363.00 378.85,363.00
             378.85,363.00 386.00,336.00 386.00,336.00
             380.02,336.62 374.61,339.31 369.00,341.31
             369.00,341.31 339.00,351.28 339.00,351.28
             305.59,361.34 273.81,369.44 239.00,373.16
             239.00,373.16 220.00,375.00 220.00,375.00 Z" />
</svg>
